<svg xmlns="http://www.w3.org/2000/svg" viewBox="0 0 1032 444" fill="none" stroke="currentColor" stroke-width="9" stroke-linejoin="round" stroke-linecap="round">
  <path d="M 12 250 L 50 285 L 92 304 L 106 293 L 117 273 L 163 275 L 188 301 L 222 352 L 239 364 L 244 388 L 259 411 L 329 431 L 338 421 L 326 394 L 324 371 L 349 321 L 371 307 L 374 299 L 386 300 L 446 263 L 455 253 L 451 243 L 457 237 L 468 248 L 513 238 L 556 250 L 565 245 L 565 237 L 573 235 L 618 266 L 633 257 L 645 265 L 655 249 L 682 267 L 689 258 L 664 242 L 675 224 L 651 220 L 648 212 L 656 206 L 671 212 L 691 201 L 726 202 L 734 187 L 744 204 L 764 197 L 807 205 L 827 218 L 835 232 L 880 215 L 896 221 L 932 258 L 935 299 L 970 353 L 984 361 L 992 381 L 1010 379 L 1019 359 L 1017 318 L 958 196 L 953 172 L 958 142 L 894 89 L 827 57 L 731 31 L 646 19 L 530 12 L 429 15 L 305 31 L 212 56 L 152 84 L 96 125 L 47 182 Z"/>
</svg>
