<svg xmlns="http://www.w3.org/2000/svg" width="480" height="600" viewBox="0 0 1122 1402"><rect width="1122" height="1402" fill="#0a0a0f"/><path d="M412.99,364.41c-2.76,2.09-6.08,3.45-7.77,5.64-3.23,4.19-6.84,5.01-12.54,4.34l1.98,5.9-7.41,9.18c-1.07,1.32-2.56,2.65-4.29,3.88-2.44-.63-2.27.4-.29,1.5l-10.95,23.04c-6.26,13.18-2.54,27.84,3.32,40.68l6.05,13.27c1.27,2.79,1.83,6.67,2.01,9.92l-8.42,4.97c-4.87-.48-9.47-3.31-13.98-5.79-11.14-3.21-19.96,3.93-31.34-6.66l-9.47-.99c-5.39-3.86-9.79-5.75-17.01-5.52l-4.8-10.13c-1.92-4.05-6.49-8.35-9.07-12.54-2.06-3.35.63-9.42-4.44-13.66,1.77-6.71-.72-13.12-7.48-15.58-7.59-2.77-10.98-10.22-15.93-16.03l-5.94-6.98c-3.79-4.46-6.07-8.78-9.32-13.76l-11.71-17.95c-2.98-4.56-5.65-8.97-9.83-12.54l-10.36-8.85c-2.22-1.89-4.03-6.9-6.57-9.5l-32.02-2.68c-2.45-2.29-6.24-3.04-8.47.71l-6.55,2.04c-6.03,3.98-7.78,12.6-10.5,18.73l-7.97,9.31c-2.11,2.46-7.94,1-10.93-.55-5.15-2.68-9.56-4.07-14.89-6.31l-10.23-4.31-9.91-5.59-7.43-5c-5.72-7.58-12.13-12.78-19.62-18.6l-10.94-8.5c-.4-.31-1.42-1.45-1.51-1.59-.05-.09-.84,1.13-1.17,1.63l-7.59,24.46-4.42,19.61-1.86,9.12-1.87,11.17-2.16,16c-1.09,8.07-1.58,15.85-1.55,24.11l.06,15.06-.1,8.86c-.12,10.73.17,20.87,1.54,31.39l2.19,16.82,1.99,11.95,3.01,15.6,1.51,7.26,6.7,30.37c12.11,46.05,26.1,90.77,45.19,134.6l25.16,57.8,9.56,20.75,38.86,79.02,28.03,53.99,22.43,41.62,33.74,59.12,12.28,20.7,33.37,53.62,15.45,23.63,11.79,17.43c32.29,47.76,65.83,94.28,105.13,136.54l15.56,16.73,24.5,24.42c15.16,15.11,31.96,27.43,50.08,38.85,37.48,23.63,70.65,21.73,105.33-5.95,14.24-11.36,27.25-22.94,39.89-36.05l10.47-10.86c35.21-38.53,66.85-79.52,95.73-123l26.43-39.79,16.22-25.69,32.72-54.29,18.93-33.16,52.25-98.45,4.14-8.31c23.63-47.48,46.55-94.78,66.79-143.91l17.56-42.62,11.37-29.68,20.23-58.46,7.68-24.42,14.58-52.43,4.24-18.04,2.33-10.85,1.82-10.13,2.16-12.85,1.87-11.13,1.96-17.04,1.45-11.37-.22-56.7-1.25-10-1.95-18.03-1.81-12.12-2.04-12.05-2.27-10.99c-7.35-35.57-21.87-68.88-41.65-99.45l-5.55-8.57-21.61-27.3c-2.83,8.89-4.34,19.18-3.75,28.4l1.79,5.38c-.92,8.61,2.52,17.71,6.27,25.7l25.19,53.74c3.01,6.41,7.16,11.33,10.96,17.15,7.2,11.05,11.02,23.78,15.92,36.04,3.76,9.41,6.22,18.88,6.08,29.13l-.32,22.84c-6.02,8.58.31,17.15-12.63,21.36l-11.02,3.58c-1.47.48-4.55-2.6-4.49-4.03s.63-3.62,1.4-6.19c-5.4-2.18-8.2-7.49-9.93-12.96-1.19-3.76-7.67-3.73-10.71-4.88-2.94-3.27-4.66-8-6.38-11.95l-4.4-10.12c-5.43-.19-14.53-12.48-13.9-17.56l1.51-12.23c-3.83-1.08-2.23,7.74-5.68,6.93-3.92-.92-10.9-13.47-10.2-24.83l1-16.16c.18-2.97-.22-9.39-2.41-11.39l-15.41-14.06-4.21-5.66-5.23-6.58-8.62-8.88c-3.76-3.87-11.07-6.49-16.47-7.88-3.67-.94-7.75,3.59-10.42,4.78l-9.83,2.52c-8.51,7.47-26.6,12.3-30.95,6.97-2.45-3.01.1-9.25-1.59-10.2l-3.69-2.09-3.01-2.27c-.62-.47,1-2.29,1.41-2.79-1.58-.15-5.13-.35-6.4-1.02l-16.23-8.65c-10.66-5.68-22.67,1.67-32.74-2.62l.24-3.22c-1.18.27-2.58.68-3.23.2l-3.07-2.29c-.16,1.68-.32,4.16-1.13,5.29-1.43,2.03-12.77,4.96-18.05,4.24-2.39-.33-4.75-5.79-4.8-8.14-.11-4.6-1.08-8.99-3.13-13.14-5.73,5.53-5.09,11.08-5.81,18.39l-8.54.52c-7.54.46-14.37.91-21.76-.43-6.38-1.16-18.78,3.13-23.38,7.57-1.73,1.68-4.82,3.38-7.19,2.93-1.81-.35-3.77-3.51-5.91-4.96-5.38-3.64-14.76,2.14-14.86,8.88-.02,1.31,2.53,3.86,3.73,3.56l4.76-1.18,3.29-.45c.76-.1.56,2.52.65,3.39.16,1.63,4.73,3.52,5.63,2.16,1.04-1.58,3.41-4.36,4.91-4.09,2.93.53,5.2,4.08,5.18,6.29-.08,8.13-8.18,6.41-12.12,15.58,5.24,3.31,3.8,8.07,10.04,9.16,5.47.96,10.99,2.91,15.23,6.62,1.32,1.16.79,5.9-.49,7.22-1.08,1.12-3.38,2.09-5.41,2.93l-5.26,2.18c.49-5.69-2.25-8.19-6.67-9.89l-10.64-4.09c-.83-2.25-2.7-5.11-4.98-5.93l-8.83-3.16c-.57-.2-2.14-1.57-2.28-1.05-.15.54-.67,1.67-.19,1.88l1.91.85c1.14.51,4.33,1.71,4.13,2.94l-.87,5.35c-.39,2.4.35,5.93-1.1,7.78-1.17,1.49-5.55,2.21-6.65,1.01-.55-4.69-3.79-6.69-6.69-7-5.59-.6-6.37,2.86-8.52,6.08-2.86,4.27-9.51,1.21-13.02-.55s-8.66-1.46-10.71-5.39c-1.4-2.68-2.57-8.22-5.69-9.14l-10.03-2.96c-1.27-5.78-5.49-7.32-10.19-9.37-4.65-2.03-11.59-1.53-13.07,4.31.99,2.34,6.3,2.85,8.69,2.67.98.11,1.25,3.46.37,4.13s-3.5,1.05-4.58.66c-3.79-1.38-6.42.02-9.9.83-17.85,4.16-37.84-15.86-58.32-10.13l-20.25,5.67-9.25,3.36-9.57-1.73c1.3-5.88,6.47-8.05,2.65-13.36l-10.59,7.51c-1.47,1.04-1.95,5.43-.64,6.58,1.55,1.38,3.26,3.22,3.34,4.5.22,3.79-12.48,13.98-20.9,18.59l-6.68,5.15c-6.5,5.01-12.62,9.2-19.91,13l-16.47,8.57-9.54,4.57,1.65-6.49-5.75,2.82c-1.07.52-3.54,1.26-4.43.69l-3.7-2.37c-.39-.25-2.69-.06-2.49.33l1.01,1.88,5.49,6.13-5.22,3.96Z" fill="none" stroke="#ffffff" stroke-width="7.01" stroke-linejoin="round" stroke-linecap="round"/></svg>